<?xml version="1.0"?>
<!DOCTYPE svg PUBLIC "-//W3C//DTD SVG 1.1//EN" "http://www.w3.org/Graphics/SVG/1.1/DTD/svg11.dtd">
<svg width="148.92000000000002mm" height="62.92mm" viewBox="0 0 148.92000000000002 62.92" xmlns="http://www.w3.org/2000/svg" version="1.1">
<g id="Body001" transform="translate(-0.035049,-75.655353) scale(1,-1)">
<path id="Body001_f0000"  d="M 141.49504852294922 -91.11535263061717 L 141.49504852294922 -86.11535263061717 L 141.49504852294922 -86.11535263061717 L 141.49504852294922 -91.11535263061717 L 141.49504852294922 -91.11535263061717 Z " stroke="#191919" stroke-width="0.35 px" style="stroke-width:0.35;stroke-miterlimit:4;stroke-dasharray:none;stroke-linecap:square;fill:#cccccc;fill-opacity:1.0;fill-rule: evenodd"/>
<path id="Body001_f0001"  d="M 1.495048522949216 -132.11535263061523 L 1.495048522949216 -124.11535263061523 L 7.495048522949216 -124.11535263061523 L 7.495048522949219 -99.11535263061523 L 1.4950485229492188 -99.11535263061523 L 1.4950485229492188 -91.11535263061523 L 7.495048522949219 -91.11535263061523 L 7.495048522949219 -86.11535263061523 A 3 3 0 0 0 10.495 -83.1154L 22.49504852294922 -83.11535263061523 L 22.49504852294922 -77.11535263061523 L 126.49504852294922 -77.11535263061717 L 126.49504852294922 -83.11535263061717 L 138.49504852294922 -83.11535263061717 A 3 3 0 0 0 141.495 -86.1154L 141.49504852294922 -91.11535263061717 L 147.49504852294922 -91.11535263061717 L 147.49504852294922 -99.11535263061717 L 141.49504852294922 -99.11535263061717 L 141.49504852294922 -124.11535263061523 L 147.49504852294922 -124.11535263061523 L 147.49504852294922 -132.11535263061523 L 141.49504852294922 -132.11535263061523 L 141.49504852294922 -134.11535263061523 A 3 3 0 0 0 138.495 -137.115L 10.495048522949219 -137.11535263061523 A 3 3 0 0 0 7.49505 -134.115L 7.495048522949217 -132.11535263061523 L 1.495048522949216 -132.11535263061523 Z M 94.61516106188043 -94.45000667065064 L 82.6211477285471 -116.38499343061524 A 1.5 1.5 0 0 0 79.9889 -114.946L 91.98296265068467 -93.01072507065064 A 1.5 1.5 0 0 0 94.6152 -94.45Z M 79.61516106188043 -94.45000667065064 L 67.6211477285471 -116.38499343061524 A 1.5 1.5 0 0 0 64.9889 -114.946L 76.98296265068467 -93.01072507065064 A 1.5 1.5 0 0 0 79.6152 -94.45Z M 64.61516106188043 -94.45000667065064 L 52.62114772854709 -116.38499343061524 A 1.5 1.5 0 0 0 49.9889 -114.946L 61.98296265068467 -93.01072507065064 A 1.5 1.5 0 1 0 64.6152 -94.45Z M 118.38916552826956 -124.15229746937945 A 6.88 6.88 0 1 0 119.513 -118.786A 1.63 1.63 0 0 1 122.59 -118.021A 10.0482 10.0482 0 1 1 120.958 -126.007A 1.63 1.63 0 0 1 118.389 -124.152Z " stroke="#191919" stroke-width="0.35 px" style="stroke-width:0.35;stroke-miterlimit:4;stroke-dasharray:none;stroke-linecap:square;fill:#cccccc;fill-opacity:1.0;fill-rule: evenodd"/>
<path id="Body001_f0002"  d="M 141.49504852294922 -86.11535263061717 A 3 3 0 0 1 138.495 -83.1154L 138.49504852294922 -83.11535263061717 A 3 3 0 0 0 141.495 -86.1154L 141.49504852294922 -86.11535263061717 Z " stroke="#191919" stroke-width="0.35 px" style="stroke-width:0.35;stroke-miterlimit:4;stroke-dasharray:none;stroke-linecap:square;fill:#cccccc;fill-opacity:1.0;fill-rule: evenodd"/>
<path id="Body001_f0003"  d="M 141.49504852294922 -91.11535263061717 L 141.49504852294922 -91.11535263061717 L 147.49504852294922 -91.11535263061717 L 147.49504852294922 -91.11535263061717 L 141.49504852294922 -91.11535263061717 Z " stroke="#191919" stroke-width="0.35 px" style="stroke-width:0.35;stroke-miterlimit:4;stroke-dasharray:none;stroke-linecap:square;fill:#cccccc;fill-opacity:1.0;fill-rule: evenodd"/>
<path id="Body001_f0004"  d="M 147.49504852294922 -91.11535263061717 L 147.49504852294922 -99.11535263061717 L 141.49504852294922 -99.11535263061717 L 141.49504852294922 -124.11535263061523 L 147.49504852294922 -124.11535263061523 L 147.49504852294922 -132.11535263061523 L 141.49504852294922 -132.11535263061523 L 141.49504852294922 -134.11535263061523 A 3 3 0 0 0 138.495 -137.115L 10.495048522949219 -137.11535263061523 A 3 3 0 0 0 7.49505 -134.115L 7.495048522949217 -132.11535263061523 L 1.495048522949216 -132.11535263061523 L 1.495048522949216 -124.11535263061523 L 7.495048522949216 -124.11535263061523 L 7.495048522949219 -99.11535263061523 L 1.4950485229492188 -99.11535263061523 L 1.4950485229492188 -91.11535263061523 L 7.495048522949219 -91.11535263061523 L 7.495048522949219 -86.11535263061523 A 3 3 0 0 0 10.495 -83.1154L 22.49504852294922 -83.11535263061523 L 22.49504852294922 -77.11535263061523 L 126.49504852294922 -77.11535263061717 L 126.49504852294922 -83.11535263061717 L 138.49504852294922 -83.11535263061717 A 3 3 0 0 0 141.495 -86.1154L 141.49504852294922 -91.11535263061717 L 147.49504852294922 -91.11535263061717 Z M 79.98894931735134 -114.94571183061524 L 91.98296265068467 -93.01072507065064 A 1.5 1.5 0 0 0 94.6152 -94.45L 82.6211477285471 -116.38499343061524 A 1.5 1.5 0 0 0 79.9889 -114.946Z M 64.98894931735134 -114.94571183061524 L 76.98296265068467 -93.01072507065064 A 1.5 1.5 0 0 0 79.6152 -94.45L 67.6211477285471 -116.38499343061524 A 1.5 1.5 0 0 0 64.9889 -114.946Z M 49.98894931735134 -114.94571183061524 L 61.98296265068467 -93.01072507065064 A 1.5 1.5 0 1 0 64.6152 -94.45L 52.62114772854709 -116.38499343061524 A 1.5 1.5 0 0 0 49.9889 -114.946Z M 120.95794383215728 -126.0069132028887 A 10.0482 10.0482 0 1 0 122.59 -118.021A 1.63 1.63 0 0 0 119.513 -118.786A 6.88 6.88 0 1 1 118.389 -124.152A 1.63 1.63 0 0 0 120.958 -126.007Z " stroke="#191919" stroke-width="0.35 px" style="stroke-width:0.35;stroke-miterlimit:4;stroke-dasharray:none;stroke-linecap:square;fill:#cccccc;fill-opacity:1.0;fill-rule: evenodd"/>
<path id="Body001_f0005"  d="M 126.49504852294922 -83.11535263061717 L 138.49504852294922 -83.11535263061717 L 138.49504852294922 -83.11535263061717 L 126.49504852294922 -83.11535263061717 L 126.49504852294922 -83.11535263061717 Z " stroke="#191919" stroke-width="0.35 px" style="stroke-width:0.35;stroke-miterlimit:4;stroke-dasharray:none;stroke-linecap:square;fill:#cccccc;fill-opacity:1.0;fill-rule: evenodd"/>
<path id="Body001_f0006"  d="M 147.49504852294922 -91.11535263061717 L 147.49504852294922 -91.11535263061717 L 147.49504852294922 -99.11535263061717 L 147.49504852294922 -99.11535263061717 L 147.49504852294922 -91.11535263061717 Z " stroke="#191919" stroke-width="0.35 px" style="stroke-width:0.35;stroke-miterlimit:4;stroke-dasharray:none;stroke-linecap:square;fill:#cccccc;fill-opacity:1.0;fill-rule: evenodd"/>
<path id="Body001_f0007"  d="M 126.49504852294922 -77.11535263061717 L 126.49504852294922 -77.11535263061717 L 126.49504852294922 -83.11535263061717 L 126.49504852294922 -83.11535263061717 L 126.49504852294922 -77.11535263061717 Z " stroke="#191919" stroke-width="0.35 px" style="stroke-width:0.35;stroke-miterlimit:4;stroke-dasharray:none;stroke-linecap:square;fill:#cccccc;fill-opacity:1.0;fill-rule: evenodd"/>
<path id="Body001_f0008"  d="M 147.49504852294922 -99.11535263061717 L 147.49504852294922 -99.11535263061717 L 141.49504852294922 -99.11535263061717 L 141.49504852294922 -99.11535263061717 L 147.49504852294922 -99.11535263061717 Z " stroke="#191919" stroke-width="0.35 px" style="stroke-width:0.35;stroke-miterlimit:4;stroke-dasharray:none;stroke-linecap:square;fill:#cccccc;fill-opacity:1.0;fill-rule: evenodd"/>
<path id="Body001_f0009"  d="M 22.49504852294922 -77.11535263061523 L 22.49504852294922 -77.11535263061523 L 126.49504852294922 -77.11535263061717 L 126.49504852294922 -77.11535263061717 L 22.49504852294922 -77.11535263061523 Z " stroke="#191919" stroke-width="0.35 px" style="stroke-width:0.35;stroke-miterlimit:4;stroke-dasharray:none;stroke-linecap:square;fill:#cccccc;fill-opacity:1.0;fill-rule: evenodd"/>
<path id="Body001_f0010"  d="M 141.49504852294922 -99.11535263061717 L 141.49504852294922 -99.11535263061717 L 141.49504852294922 -124.11535263061523 L 141.49504852294922 -124.11535263061523 L 141.49504852294922 -99.11535263061717 Z " stroke="#191919" stroke-width="0.35 px" style="stroke-width:0.35;stroke-miterlimit:4;stroke-dasharray:none;stroke-linecap:square;fill:#cccccc;fill-opacity:1.0;fill-rule: evenodd"/>
<path id="Body001_f0011"  d="M 22.49504852294922 -83.11535263061523 L 22.49504852294922 -83.11535263061523 L 22.49504852294922 -77.11535263061523 L 22.49504852294922 -77.11535263061523 L 22.49504852294922 -83.11535263061523 Z " stroke="#191919" stroke-width="0.35 px" style="stroke-width:0.35;stroke-miterlimit:4;stroke-dasharray:none;stroke-linecap:square;fill:#cccccc;fill-opacity:1.0;fill-rule: evenodd"/>
<path id="Body001_f0012"  d="M 141.49504852294922 -124.11535263061523 L 141.49504852294922 -124.11535263061523 L 147.49504852294922 -124.11535263061523 L 147.49504852294922 -124.11535263061523 L 141.49504852294922 -124.11535263061523 Z " stroke="#191919" stroke-width="0.35 px" style="stroke-width:0.35;stroke-miterlimit:4;stroke-dasharray:none;stroke-linecap:square;fill:#cccccc;fill-opacity:1.0;fill-rule: evenodd"/>
<path id="Body001_f0013"  d="M 22.49504852294922 -83.11535263061523 L 10.495048522949219 -83.11535263061523 L 10.495048522949219 -83.11535263061523 L 22.49504852294922 -83.11535263061523 L 22.49504852294922 -83.11535263061523 Z " stroke="#191919" stroke-width="0.35 px" style="stroke-width:0.35;stroke-miterlimit:4;stroke-dasharray:none;stroke-linecap:square;fill:#cccccc;fill-opacity:1.0;fill-rule: evenodd"/>
<path id="Body001_f0014"  d="M 147.49504852294922 -124.11535263061523 L 147.49504852294922 -124.11535263061523 L 147.49504852294922 -132.11535263061523 L 147.49504852294922 -132.11535263061523 L 147.49504852294922 -124.11535263061523 Z " stroke="#191919" stroke-width="0.35 px" style="stroke-width:0.35;stroke-miterlimit:4;stroke-dasharray:none;stroke-linecap:square;fill:#cccccc;fill-opacity:1.0;fill-rule: evenodd"/>
<path id="Body001_f0015"  d="M 7.495048522949219 -86.11535263061523 A 3 3 0 0 0 10.495 -83.1154L 10.495048522949219 -83.11535263061523 A 3 3 0 0 1 7.49505 -86.1154L 7.495048522949219 -86.11535263061523 Z " stroke="#191919" stroke-width="0.35 px" style="stroke-width:0.35;stroke-miterlimit:4;stroke-dasharray:none;stroke-linecap:square;fill:#cccccc;fill-opacity:1.0;fill-rule: evenodd"/>
<path id="Body001_f0016"  d="M 147.49504852294922 -132.11535263061523 L 147.49504852294922 -132.11535263061523 L 141.49504852294922 -132.11535263061523 L 141.49504852294922 -132.11535263061523 L 147.49504852294922 -132.11535263061523 Z " stroke="#191919" stroke-width="0.35 px" style="stroke-width:0.35;stroke-miterlimit:4;stroke-dasharray:none;stroke-linecap:square;fill:#cccccc;fill-opacity:1.0;fill-rule: evenodd"/>
<path id="Body001_f0017"  d="M 7.495048522949219 -86.11535263061523 L 7.495048522949219 -91.11535263061523 L 7.495048522949219 -91.11535263061523 L 7.495048522949219 -86.11535263061523 L 7.495048522949219 -86.11535263061523 Z " stroke="#191919" stroke-width="0.35 px" style="stroke-width:0.35;stroke-miterlimit:4;stroke-dasharray:none;stroke-linecap:square;fill:#cccccc;fill-opacity:1.0;fill-rule: evenodd"/>
<path id="Body001_f0018"  d="M 141.49504852294922 -134.11535263061523 L 141.49504852294922 -132.11535263061523 L 141.49504852294922 -132.11535263061523 L 141.49504852294922 -134.11535263061523 L 141.49504852294922 -134.11535263061523 Z " stroke="#191919" stroke-width="0.35 px" style="stroke-width:0.35;stroke-miterlimit:4;stroke-dasharray:none;stroke-linecap:square;fill:#cccccc;fill-opacity:1.0;fill-rule: evenodd"/>
<path id="Body001_f0019"  d="M 1.4950485229492188 -91.11535263061523 L 1.4950485229492188 -91.11535263061523 L 7.495048522949219 -91.11535263061523 L 7.495048522949219 -91.11535263061523 L 1.4950485229492188 -91.11535263061523 Z " stroke="#191919" stroke-width="0.35 px" style="stroke-width:0.35;stroke-miterlimit:4;stroke-dasharray:none;stroke-linecap:square;fill:#cccccc;fill-opacity:1.0;fill-rule: evenodd"/>
<path id="Body001_f0020"  d="M 141.49504852294922 -134.11535263061523 A 3 3 0 0 0 138.495 -137.115L 138.49504852294922 -137.11535263061523 A 3 3 0 0 1 141.495 -134.115L 141.49504852294922 -134.11535263061523 Z " stroke="#191919" stroke-width="0.35 px" style="stroke-width:0.35;stroke-miterlimit:4;stroke-dasharray:none;stroke-linecap:square;fill:#cccccc;fill-opacity:1.0;fill-rule: evenodd"/>
<path id="Body001_f0021"  d="M 1.4950485229492188 -99.11535263061523 L 1.4950485229492188 -91.11535263061523 L 1.4950485229492188 -91.11535263061523 L 1.4950485229492188 -99.11535263061523 L 1.4950485229492188 -99.11535263061523 Z " stroke="#191919" stroke-width="0.35 px" style="stroke-width:0.35;stroke-miterlimit:4;stroke-dasharray:none;stroke-linecap:square;fill:#cccccc;fill-opacity:1.0;fill-rule: evenodd"/>
<path id="Body001_f0022"  d="M 10.495048522949219 -137.11535263061523 L 138.49504852294922 -137.11535263061523 L 138.49504852294922 -137.11535263061523 L 10.495048522949219 -137.11535263061523 L 10.495048522949219 -137.11535263061523 Z " stroke="#191919" stroke-width="0.35 px" style="stroke-width:0.35;stroke-miterlimit:4;stroke-dasharray:none;stroke-linecap:square;fill:#cccccc;fill-opacity:1.0;fill-rule: evenodd"/>
<path id="Body001_f0023"  d="M 7.495048522949219 -99.11535263061523 L 1.4950485229492188 -99.11535263061523 L 1.4950485229492188 -99.11535263061523 L 7.495048522949219 -99.11535263061523 L 7.495048522949219 -99.11535263061523 Z " stroke="#191919" stroke-width="0.35 px" style="stroke-width:0.35;stroke-miterlimit:4;stroke-dasharray:none;stroke-linecap:square;fill:#cccccc;fill-opacity:1.0;fill-rule: evenodd"/>
<path id="Body001_f0024"  d="M 10.495048522949219 -137.11535263061523 A 3 3 0 0 0 7.49505 -134.115L 7.495048522949219 -134.11535263061523 A 3 3 0 0 1 10.495 -137.115L 10.495048522949219 -137.11535263061523 Z " stroke="#191919" stroke-width="0.35 px" style="stroke-width:0.35;stroke-miterlimit:4;stroke-dasharray:none;stroke-linecap:square;fill:#cccccc;fill-opacity:1.0;fill-rule: evenodd"/>
<path id="Body001_f0025"  d="M 7.495048522949216 -124.11535263061523 L 7.495048522949219 -99.11535263061523 L 7.495048522949219 -99.11535263061523 L 7.495048522949216 -124.11535263061523 L 7.495048522949216 -124.11535263061523 Z " stroke="#191919" stroke-width="0.35 px" style="stroke-width:0.35;stroke-miterlimit:4;stroke-dasharray:none;stroke-linecap:square;fill:#cccccc;fill-opacity:1.0;fill-rule: evenodd"/>
<path id="Body001_f0026"  d="M 7.495048522949219 -134.11535263061523 L 7.495048522949217 -132.11535263061523 L 7.495048522949217 -132.11535263061523 L 7.495048522949219 -134.11535263061523 L 7.495048522949219 -134.11535263061523 Z " stroke="#191919" stroke-width="0.35 px" style="stroke-width:0.35;stroke-miterlimit:4;stroke-dasharray:none;stroke-linecap:square;fill:#cccccc;fill-opacity:1.0;fill-rule: evenodd"/>
<path id="Body001_f0027"  d="M 1.495048522949216 -124.11535263061523 L 1.495048522949216 -124.11535263061523 L 7.495048522949216 -124.11535263061523 L 7.495048522949216 -124.11535263061523 L 1.495048522949216 -124.11535263061523 Z " stroke="#191919" stroke-width="0.35 px" style="stroke-width:0.35;stroke-miterlimit:4;stroke-dasharray:none;stroke-linecap:square;fill:#cccccc;fill-opacity:1.0;fill-rule: evenodd"/>
<path id="Body001_f0028"  d="M 7.495048522949217 -132.11535263061523 L 7.495048522949217 -132.11535263061523 L 1.495048522949216 -132.11535263061523 L 1.495048522949216 -132.11535263061523 L 7.495048522949215 -132.11535263061523 Z " stroke="#191919" stroke-width="0.35 px" style="stroke-width:0.35;stroke-miterlimit:4;stroke-dasharray:none;stroke-linecap:square;fill:#cccccc;fill-opacity:1.0;fill-rule: evenodd"/>
<path id="Body001_f0029"  d="M 1.495048522949216 -132.11535263061523 L 1.495048522949216 -132.11535263061523 L 1.495048522949216 -124.11535263061523 L 1.495048522949216 -124.11535263061523 L 1.495048522949216 -132.11535263061523 Z " stroke="#191919" stroke-width="0.35 px" style="stroke-width:0.35;stroke-miterlimit:4;stroke-dasharray:none;stroke-linecap:square;fill:#cccccc;fill-opacity:1.0;fill-rule: evenodd"/>
<path id="Body001_f0030"  d="M 94.61516106188043 -94.45000667065064 L 94.61516106188043 -94.45000667065064 A 1.5 1.5 0 1 1 91.983 -93.0107L 91.98296265068467 -93.01072507065064 A 1.5 1.5 0 1 0 94.6152 -94.45Z " stroke="#191919" stroke-width="0.35 px" style="stroke-width:0.35;stroke-miterlimit:4;stroke-dasharray:none;stroke-linecap:square;fill:#cccccc;fill-opacity:1.0;fill-rule: evenodd"/>
<path id="Body001_f0031"  d="M 91.98296265068467 -93.01072507065064 L 91.98296265068467 -93.01072507065064 L 79.98894931735134 -114.94571183061524 L 79.98894931735134 -114.94571183061524 L 91.98296265068467 -93.01072507065064 Z " stroke="#191919" stroke-width="0.35 px" style="stroke-width:0.35;stroke-miterlimit:4;stroke-dasharray:none;stroke-linecap:square;fill:#cccccc;fill-opacity:1.0;fill-rule: evenodd"/>
<path id="Body001_f0032"  d="M 79.98894931735134 -114.94571183061524 L 79.98894931735134 -114.94571183061524 A 1.5 1.5 0 0 1 82.6211 -116.385L 82.6211477285471 -116.38499343061524 A 1.5 1.5 0 0 0 79.9889 -114.946Z " stroke="#191919" stroke-width="0.35 px" style="stroke-width:0.35;stroke-miterlimit:4;stroke-dasharray:none;stroke-linecap:square;fill:#cccccc;fill-opacity:1.0;fill-rule: evenodd"/>
<path id="Body001_f0033"  d="M 82.6211477285471 -116.38499343061524 L 82.6211477285471 -116.38499343061524 L 94.61516106188043 -94.45000667065064 L 94.61516106188043 -94.45000667065064 L 82.6211477285471 -116.38499343061524 Z " stroke="#191919" stroke-width="0.35 px" style="stroke-width:0.35;stroke-miterlimit:4;stroke-dasharray:none;stroke-linecap:square;fill:#cccccc;fill-opacity:1.0;fill-rule: evenodd"/>
<path id="Body001_f0034"  d="M 79.61516106188043 -94.45000667065064 L 79.61516106188043 -94.45000667065064 A 1.5 1.5 0 1 1 76.983 -93.0107L 76.98296265068467 -93.01072507065064 A 1.5 1.5 0 1 0 79.6152 -94.45Z " stroke="#191919" stroke-width="0.35 px" style="stroke-width:0.35;stroke-miterlimit:4;stroke-dasharray:none;stroke-linecap:square;fill:#cccccc;fill-opacity:1.0;fill-rule: evenodd"/>
<path id="Body001_f0035"  d="M 76.98296265068467 -93.01072507065064 L 76.98296265068467 -93.01072507065064 L 64.98894931735134 -114.94571183061524 L 64.98894931735134 -114.94571183061524 L 76.98296265068467 -93.01072507065064 Z " stroke="#191919" stroke-width="0.35 px" style="stroke-width:0.35;stroke-miterlimit:4;stroke-dasharray:none;stroke-linecap:square;fill:#cccccc;fill-opacity:1.0;fill-rule: evenodd"/>
<path id="Body001_f0036"  d="M 64.98894931735134 -114.94571183061524 L 64.98894931735134 -114.94571183061524 A 1.5 1.5 0 1 1 67.6211 -116.385L 67.6211477285471 -116.38499343061524 A 1.5 1.5 0 1 0 64.9889 -114.946Z " stroke="#191919" stroke-width="0.35 px" style="stroke-width:0.35;stroke-miterlimit:4;stroke-dasharray:none;stroke-linecap:square;fill:#cccccc;fill-opacity:1.0;fill-rule: evenodd"/>
<path id="Body001_f0037"  d="M 67.6211477285471 -116.38499343061524 L 67.6211477285471 -116.38499343061524 L 79.61516106188043 -94.45000667065064 L 79.61516106188043 -94.45000667065064 L 67.6211477285471 -116.38499343061524 Z " stroke="#191919" stroke-width="0.35 px" style="stroke-width:0.35;stroke-miterlimit:4;stroke-dasharray:none;stroke-linecap:square;fill:#cccccc;fill-opacity:1.0;fill-rule: evenodd"/>
<path id="Body001_f0038"  d="M 64.61516106188043 -94.45000667065064 L 64.61516106188043 -94.45000667065064 A 1.5 1.5 0 1 1 61.983 -93.0107L 61.98296265068467 -93.01072507065064 A 1.5 1.5 0 1 0 64.6152 -94.45Z " stroke="#191919" stroke-width="0.35 px" style="stroke-width:0.35;stroke-miterlimit:4;stroke-dasharray:none;stroke-linecap:square;fill:#cccccc;fill-opacity:1.0;fill-rule: evenodd"/>
<path id="Body001_f0039"  d="M 61.98296265068467 -93.01072507065064 L 61.98296265068467 -93.01072507065064 L 49.98894931735134 -114.94571183061524 L 49.98894931735134 -114.94571183061524 L 61.98296265068467 -93.01072507065064 Z " stroke="#191919" stroke-width="0.35 px" style="stroke-width:0.35;stroke-miterlimit:4;stroke-dasharray:none;stroke-linecap:square;fill:#cccccc;fill-opacity:1.0;fill-rule: evenodd"/>
<path id="Body001_f0040"  d="M 49.98894931735134 -114.94571183061524 L 49.98894931735134 -114.94571183061524 A 1.5 1.5 0 0 1 52.6211 -116.385L 52.62114772854709 -116.38499343061524 A 1.5 1.5 0 0 0 49.9889 -114.946Z " stroke="#191919" stroke-width="0.35 px" style="stroke-width:0.35;stroke-miterlimit:4;stroke-dasharray:none;stroke-linecap:square;fill:#cccccc;fill-opacity:1.0;fill-rule: evenodd"/>
<path id="Body001_f0041"  d="M 52.62114772854709 -116.38499343061524 L 52.62114772854709 -116.38499343061524 L 64.61516106188043 -94.45000667065064 L 64.61516106188043 -94.45000667065064 L 52.62114772854709 -116.38499343061524 Z " stroke="#191919" stroke-width="0.35 px" style="stroke-width:0.35;stroke-miterlimit:4;stroke-dasharray:none;stroke-linecap:square;fill:#cccccc;fill-opacity:1.0;fill-rule: evenodd"/>
<path id="Body001_f0042"  d="M 119.51330767720823 -118.78601337397393 L 119.51330767720823 -118.78601337397393 A 1.63 1.63 0 0 1 122.59 -118.021L 122.58959691016373 -118.0209352373094 A 1.63 1.63 0 0 0 119.513 -118.786Z " stroke="#191919" stroke-width="0.35 px" style="stroke-width:0.35;stroke-miterlimit:4;stroke-dasharray:none;stroke-linecap:square;fill:#cccccc;fill-opacity:1.0;fill-rule: evenodd"/>
<path id="Body001_f0043"  d="M 122.58959691016373 -118.0209352373094 L 122.58959691016373 -118.0209352373094 A 10.0482 10.0482 0 1 1 120.958 -126.007L 120.95794383215728 -126.0069132028887 A 10.0482 10.0482 0 1 0 122.59 -118.021Z " stroke="#191919" stroke-width="0.35 px" style="stroke-width:0.35;stroke-miterlimit:4;stroke-dasharray:none;stroke-linecap:square;fill:#cccccc;fill-opacity:1.0;fill-rule: evenodd"/>
<path id="Body001_f0044"  d="M 120.95794383215728 -126.0069132028887 L 120.95794383215728 -126.0069132028887 A 1.63 1.63 0 0 1 118.389 -124.152L 118.38916552826956 -124.15229746937943 A 1.63 1.63 0 0 0 120.958 -126.007Z " stroke="#191919" stroke-width="0.35 px" style="stroke-width:0.35;stroke-miterlimit:4;stroke-dasharray:none;stroke-linecap:square;fill:#cccccc;fill-opacity:1.0;fill-rule: evenodd"/>
<path id="Body001_f0045"  d="M 118.38916552826954 -124.15229746937943 A 6.88 6.88 0 1 0 119.513 -118.786L 119.51330767720823 -118.78601337397393 A 6.88 6.88 0 1 1 118.389 -124.152L 118.38916552826956 -124.15229746937943 Z " stroke="#191919" stroke-width="0.35 px" style="stroke-width:0.35;stroke-miterlimit:4;stroke-dasharray:none;stroke-linecap:square;fill:#cccccc;fill-opacity:1.0;fill-rule: evenodd"/>
<title>b'Side Face'</title>
</g>
</svg>