<?xml version="1.0"?>
<!DOCTYPE svg PUBLIC "-//W3C//DTD SVG 1.1//EN" "http://www.w3.org/Graphics/SVG/1.1/DTD/svg11.dtd">
<svg width="148.92000000000002mm" height="68.92mm" viewBox="0 0 148.92000000000002 68.92" xmlns="http://www.w3.org/2000/svg" version="1.1">
<g id="Body" transform="translate(1.460000,67.460000) scale(1,-1)">
<path id="Body_f0000"  d="M 141.0 52.0 L 141.0 58.0 A 3 3 0 0 1 138 61L 126.00000000000178 61.0 L 126.00000000000178 66.0 L 143.0 66.0 A 3 3 0 0 0 146 63L 146.0 52.0 L 141.0 52.0 Z " stroke="#191919" stroke-width="0.35 px" style="stroke-width:0.35;stroke-miterlimit:4;stroke-dasharray:none;stroke-linecap:square;fill:#cccccc;fill-opacity:1.0;fill-rule: evenodd"/>
<path id="Body_f0001"  d="M 141.0 58.0 A 3 3 0 0 1 138 61L 138.0 61.0 L 138.0 61.0 L 138.0 61.0 A 3 3 0 0 0 141 58L 141.0 58.0 Z " stroke="#191919" stroke-width="0.35 px" style="stroke-width:0.35;stroke-miterlimit:4;stroke-dasharray:none;stroke-linecap:square;fill:#cccccc;fill-opacity:1.0;fill-rule: evenodd"/>
<path id="Body_f0002"  d="M 126.00000000000178 61.0 L 138.0 61.0 L 138.0 61.0 L 138.0 61.0 L 138.0 61.0 L 126.00000000000178 61.0 L 126.00000000000178 61.0 Z M 138.0 61.0 M 138.0 61.0 L 134.0 61.00000000000001 M 134.0 61.000000000000014 L 138.0 61.0 Z M 130.5 61.00000000000001 M 130.5 61.0 L 130.5 61.0 Z M 138.0 61.0 M 138.0 61.0 L 134.0 61.0 M 134.0 61.0 L 138.0 61.0 Z " stroke="#191919" stroke-width="0.35 px" style="stroke-width:0.35;stroke-miterlimit:4;stroke-dasharray:none;stroke-linecap:square;fill:#cccccc;fill-opacity:1.0;fill-rule: evenodd"/>
<path id="Body_f0003"  d="M 126.00000000000178 61.0 L 126.00000000000178 66.0 L 126.00000000000178 66.0 L 126.00000000000178 61.0 L 126.00000000000178 61.0 Z " stroke="#191919" stroke-width="0.35 px" style="stroke-width:0.35;stroke-miterlimit:4;stroke-dasharray:none;stroke-linecap:square;fill:#cccccc;fill-opacity:1.0;fill-rule: evenodd"/>
<path id="Body_f0004"  d="M 126.00000000000178 66.0 L 143.0 66.0 L 143.0 66.0 L 126.00000000000178 66.0 L 126.00000000000178 66.0 Z M 134.0 66.00000000000001 M 134.0 66.0 L 134.0 66.0 Z M 134.0 66.0 M 134.0 66.0 L 134.0 66.0 Z M 130.5 66.00000000000001 M 130.5 66.0 L 130.5 66.0 Z " stroke="#191919" stroke-width="0.35 px" style="stroke-width:0.35;stroke-miterlimit:4;stroke-dasharray:none;stroke-linecap:square;fill:#cccccc;fill-opacity:1.0;fill-rule: evenodd"/>
<path id="Body_f0005"  d="M 143.0 66.0 A 3 3 0 0 0 146 63L 146.0 63.0 A 3 3 0 0 1 143 66L 143.0 66.0 Z " stroke="#191919" stroke-width="0.35 px" style="stroke-width:0.35;stroke-miterlimit:4;stroke-dasharray:none;stroke-linecap:square;fill:#cccccc;fill-opacity:1.0;fill-rule: evenodd"/>
<path id="Body_f0007"  d="M 146.0 52.0 L 146.0 52.0 L 141.0 52.0 L 141.0 52.0 L 146.0 52.0 Z " stroke="#191919" stroke-width="0.35 px" style="stroke-width:0.35;stroke-miterlimit:4;stroke-dasharray:none;stroke-linecap:square;fill:#cccccc;fill-opacity:1.0;fill-rule: evenodd"/>
<path id="Body_f0009"  d="M 126.00000000000178 61.0 L 126.00000000000178 66.0 L 143.0 66.0 A 3 3 0 0 0 146 63L 146.0 51.999999999999986 L 141.0 51.999999999999986 L 141.0 58.0 A 3 3 0 0 1 138 61L 126.00000000000178 61.0 Z " stroke="#191919" stroke-width="0.35 px" style="stroke-width:0.35;stroke-miterlimit:4;stroke-dasharray:none;stroke-linecap:square;fill:#cccccc;fill-opacity:1.0;fill-rule: evenodd"/>
<path id="Body_f0010"  d="M 134.0 66.00000000000001 M 134.0 66.0 L 134.0 66.0 L 134.0 61.000000000000014 M 134.0 61.0 L 138.0 61.0 M 138.0 61.0 L 134.0 61.0 Z " stroke="#191919" stroke-width="0.35 px" style="stroke-width:0.35;stroke-miterlimit:4;stroke-dasharray:none;stroke-linecap:square;fill:#cccccc;fill-opacity:1.0;fill-rule: evenodd"/>
<path id="Body_f0011"  d="M 130.5 66.00000000000001 M 130.5 66.0 L 130.5 66.0 L 130.5 61.00000000000001 M 130.5 61.0 L 130.5 61.0 Z " stroke="#191919" stroke-width="0.35 px" style="stroke-width:0.35;stroke-miterlimit:4;stroke-dasharray:none;stroke-linecap:square;fill:#cccccc;fill-opacity:1.0;fill-rule: evenodd"/>
<path id="Body_f0012"  d="M 134.0 66.0 M 134.0 66.0 L 134.0 66.0 L 134.0 61.0 M 134.0 61.0 L 138.0 61.0 M 138.0 61.0 L 134.0 61.0 Z " stroke="#191919" stroke-width="0.35 px" style="stroke-width:0.35;stroke-miterlimit:4;stroke-dasharray:none;stroke-linecap:square;fill:#cccccc;fill-opacity:1.0;fill-rule: evenodd"/>
<path id="Body_f0013"  d="M 146.0 44.0 L 146.0 52.0 L 141.0 52.0 L 141.0 44.0 L 146.0 44.0 Z " stroke="#191919" stroke-width="0.35 px" style="stroke-width:0.35;stroke-miterlimit:4;stroke-dasharray:none;stroke-linecap:square;fill:#cccccc;fill-opacity:1.0;fill-rule: evenodd"/>
<path id="Body_f0014"  d="M 146.0 44.0 L 146.0 44.0 L 141.0 44.0 L 141.0 44.0 L 146.0 44.0 Z " stroke="#191919" stroke-width="0.35 px" style="stroke-width:0.35;stroke-miterlimit:4;stroke-dasharray:none;stroke-linecap:square;fill:#cccccc;fill-opacity:1.0;fill-rule: evenodd"/>
<path id="Body_f0015"  d="M 141.0 19.0 L 141.0 44.0 L 146.0 44.0 L 146.0 19.0 L 141.0 19.0 Z " stroke="#191919" stroke-width="0.35 px" style="stroke-width:0.35;stroke-miterlimit:4;stroke-dasharray:none;stroke-linecap:square;fill:#cccccc;fill-opacity:1.0;fill-rule: evenodd"/>
<path id="Body_f0016"  d="M 146.0 19.0 L 146.0 19.0 L 141.0 19.0 L 141.0 19.0 L 146.0 19.0 Z " stroke="#191919" stroke-width="0.35 px" style="stroke-width:0.35;stroke-miterlimit:4;stroke-dasharray:none;stroke-linecap:square;fill:#cccccc;fill-opacity:1.0;fill-rule: evenodd"/>
<path id="Body_f0017"  d="M 146.0 11.0 L 146.0 19.0 L 141.0 19.0 L 141.0 11.0 L 146.0 11.0 Z " stroke="#191919" stroke-width="0.35 px" style="stroke-width:0.35;stroke-miterlimit:4;stroke-dasharray:none;stroke-linecap:square;fill:#cccccc;fill-opacity:1.0;fill-rule: evenodd"/>
<path id="Body_f0018"  d="M 146.0 11.0 L 146.0 11.0 L 141.0 11.0 L 141.0 11.0 L 146.0 11.0 Z " stroke="#191919" stroke-width="0.35 px" style="stroke-width:0.35;stroke-miterlimit:4;stroke-dasharray:none;stroke-linecap:square;fill:#cccccc;fill-opacity:1.0;fill-rule: evenodd"/>
<path id="Body_f0019"  d="M 141.0 8.0 L 141.0 11.0 L 146.0 11.0 L 146.0 3.0 A 3 3 0 0 0 143 -4.44089e-16L 3.0 0.0 A 3 3 0 0 0 -4.44089e-16 3L 0.0 11.0 L 5.0 11.0 L 5.0 8.0 A 3 3 0 0 1 8 5L 138.0 5.0 A 3 3 0 0 1 141 8Z " stroke="#191919" stroke-width="0.35 px" style="stroke-width:0.35;stroke-miterlimit:4;stroke-dasharray:none;stroke-linecap:square;fill:#cccccc;fill-opacity:1.0;fill-rule: evenodd"/>
<path id="Body_f0020"  d="M 143.0 0.0 A 3 3 0 0 1 146 3L 146.0 3.0 A 3 3 0 0 0 143 -4.44089e-16L 143.0 -4.4e-16 Z " stroke="#191919" stroke-width="0.35 px" style="stroke-width:0.35;stroke-miterlimit:4;stroke-dasharray:none;stroke-linecap:square;fill:#cccccc;fill-opacity:1.0;fill-rule: evenodd"/>
<path id="Body_f0021"  d="M 146.0 10.999999999999998 L 141.0 10.999999999999998 L 141.0 8.0 A 3 3 0 0 0 138 5L 8.0 5.0 A 3 3 0 0 0 5 8L 5.0 10.9999999999999 L 0.0 10.999999999999897 L 0.0 3.0 A 3 3 0 0 1 3 -4.44089e-16L 143.0 0.0 A 3 3 0 0 1 146 3L 146.0 11.0 Z " stroke="#191919" stroke-width="0.35 px" style="stroke-width:0.35;stroke-miterlimit:4;stroke-dasharray:none;stroke-linecap:square;fill:#cccccc;fill-opacity:1.0;fill-rule: evenodd"/>
<path id="Body_f0022"  d="M 146.0 10.999999999999998 L 146.0 10.999999999999998 L 141.0 10.999999999999998 L 141.0 10.999999999999998 L 146.0 10.999999999999998 Z " stroke="#191919" stroke-width="0.35 px" style="stroke-width:0.35;stroke-miterlimit:4;stroke-dasharray:none;stroke-linecap:square;fill:#cccccc;fill-opacity:1.0;fill-rule: evenodd"/>
<path id="Body_f0023"  d="M 146.0 19.0 L 146.0 10.999999999999998 L 141.0 10.999999999999998 L 141.0 19.0 L 146.0 19.0 Z " stroke="#191919" stroke-width="0.35 px" style="stroke-width:0.35;stroke-miterlimit:4;stroke-dasharray:none;stroke-linecap:square;fill:#cccccc;fill-opacity:1.0;fill-rule: evenodd"/>
<path id="Body_f0025"  d="M 146.0 43.999999999999986 L 141.0 43.999999999999986 L 141.0 19.0 L 146.0 19.0 L 146.0 43.999999999999986 Z " stroke="#191919" stroke-width="0.35 px" style="stroke-width:0.35;stroke-miterlimit:4;stroke-dasharray:none;stroke-linecap:square;fill:#cccccc;fill-opacity:1.0;fill-rule: evenodd"/>
<path id="Body_f0026"  d="M 146.0 43.999999999999986 L 146.0 43.999999999999986 L 141.0 43.999999999999986 L 141.0 43.999999999999986 L 146.0 43.999999999999986 Z " stroke="#191919" stroke-width="0.35 px" style="stroke-width:0.35;stroke-miterlimit:4;stroke-dasharray:none;stroke-linecap:square;fill:#cccccc;fill-opacity:1.0;fill-rule: evenodd"/>
<path id="Body_f0027"  d="M 146.0 51.999999999999986 L 146.0 43.999999999999986 L 141.0 43.999999999999986 L 141.0 51.999999999999986 L 146.0 51.999999999999986 Z " stroke="#191919" stroke-width="0.35 px" style="stroke-width:0.35;stroke-miterlimit:4;stroke-dasharray:none;stroke-linecap:square;fill:#cccccc;fill-opacity:1.0;fill-rule: evenodd"/>
<path id="Body_f0028"  d="M 146.0 51.999999999999986 L 146.0 51.999999999999986 L 141.0 51.999999999999986 L 141.0 51.999999999999986 L 146.0 51.999999999999986 Z " stroke="#191919" stroke-width="0.35 px" style="stroke-width:0.35;stroke-miterlimit:4;stroke-dasharray:none;stroke-linecap:square;fill:#cccccc;fill-opacity:1.0;fill-rule: evenodd"/>
<path id="Body_f0029"  d="M 146.0 44.230000000000004 M 146.0 44.230000000000004 L 146.0 36.730000000000004 L 146.0 36.730000000000004 L 146.0 44.230000000000004 L 141.0 44.230000000000004 M 141.0 44.230000000000004 L 141.0 36.730000000000004 L 141.0 36.730000000000004 L 141.0 44.230000000000004 Z " stroke="#191919" stroke-width="0.35 px" style="stroke-width:0.35;stroke-miterlimit:4;stroke-dasharray:none;stroke-linecap:square;fill:#cccccc;fill-opacity:1.0;fill-rule: evenodd"/>
<path id="Body_f0030"  d="M 146.0 29.23 M 146.0 29.23 L 146.0 21.73 L 146.0 21.729999999999997 L 146.0 29.23 L 141.0 29.23 M 141.0 29.23 L 141.0 21.73 L 141.0 21.729999999999997 L 141.0 29.23 Z " stroke="#191919" stroke-width="0.35 px" style="stroke-width:0.35;stroke-miterlimit:4;stroke-dasharray:none;stroke-linecap:square;fill:#cccccc;fill-opacity:1.0;fill-rule: evenodd"/>
<path id="Body_f0035"  d="M 141.0 8.0 A 3 3 0 0 0 138 5L 138.0 5.0 A 3 3 0 0 1 141 8L 141.0 8.0 Z " stroke="#191919" stroke-width="0.35 px" style="stroke-width:0.35;stroke-miterlimit:4;stroke-dasharray:none;stroke-linecap:square;fill:#cccccc;fill-opacity:1.0;fill-rule: evenodd"/>
<path id="Body_f0036"  d="M 3.0 0.0 L 143.0 0.0 L 143.0 -4.4e-16 L 3.0 0.0 L 3.0 0.0 Z M 120.450974 7e-15 L 120.450974 1.2e-14 M 120.450974 1.2e-14 L 123.450974 1.2e-14 L 123.450974 7e-15 M 123.450974 7e-15 L 120.450974 7e-15 Z M 115.450974 7e-15 L 115.450974 1.2e-14 M 115.450974 1.2e-14 L 118.450974 1.2e-14 L 118.450974 7e-15 M 118.450974 7e-15 L 115.450974 7e-15 Z M 110.450974 7e-15 L 110.450974 1.2e-14 M 110.450974 1.2e-14 L 113.450974 1.2e-14 L 113.450974 7e-15 M 113.450974 7e-15 L 110.450974 7e-15 Z M 105.450974 7e-15 L 105.450974 1.2e-14 M 105.450974 1.2e-14 L 108.450974 1.2e-14 L 108.450974 7e-15 M 108.450974 7e-15 L 105.450974 7e-15 Z M 100.450974 7e-15 L 100.450974 1.2e-14 M 100.450974 1.2e-14 L 103.450974 1.2e-14 L 103.450974 7e-15 M 103.450974 7e-15 L 100.450974 7e-15 Z " stroke="#191919" stroke-width="0.35 px" style="stroke-width:0.35;stroke-miterlimit:4;stroke-dasharray:none;stroke-linecap:square;fill:#cccccc;fill-opacity:1.0;fill-rule: evenodd"/>
<path id="Body_f0037"  d="M 3.0 0.0 A 3 3 0 0 0 -4.44089e-16 3L -4.4e-16 2.9999999999999996 A 3 3 0 0 1 3 -4.44089e-16L 3.0 0.0 Z " stroke="#191919" stroke-width="0.35 px" style="stroke-width:0.35;stroke-miterlimit:4;stroke-dasharray:none;stroke-linecap:square;fill:#cccccc;fill-opacity:1.0;fill-rule: evenodd"/>
<path id="Body_f0038"  d="M 0.0 11.0 L 0.0 19.0 L 0.0 19.0 L 0.0 43.999999999999964 L 0.0 43.999999999999964 L 0.0 51.99999999999999 L 0.0 52.0 L 0.0 63.0 L 0.0 63.0 L 0.0 52.00000000000005 L 0.0 52.00000000000005 L 0.0 43.99999999999987 L 0.0 43.99999999999987 L 0.0 19.000000000000107 L 0.0 19.000000000000107 L 0.0 10.999999999999897 L 0.0 10.999999999999897 L 0.0 3.0 L -4.4e-16 2.9999999999999996 L 0.0 11.0 L 0.0 11.0 Z M 0.0 27.5 L 0.0 27.5 M 0.0 27.5 L 0.0 20.0 L 0.0 12.5 L 0.0 12.5 M 0.0 12.5 L 0.0 20.0 L 0.0 27.5 Z " stroke="#191919" stroke-width="0.35 px" style="stroke-width:0.35;stroke-miterlimit:4;stroke-dasharray:none;stroke-linecap:square;fill:#cccccc;fill-opacity:1.0;fill-rule: evenodd"/>
<path id="Body_f0039"  d="M 0.0 11.0 L 0.0 11.0 L 5.0 11.0 L 5.0 11.0 L 0.0 11.0 Z " stroke="#191919" stroke-width="0.35 px" style="stroke-width:0.35;stroke-miterlimit:4;stroke-dasharray:none;stroke-linecap:square;fill:#cccccc;fill-opacity:1.0;fill-rule: evenodd"/>
<path id="Body_f0040"  d="M 5.0 51.99999999999999 L 5.0 43.999999999999964 L 5.0 43.999999999999964 L 5.0 19.0 L 5.0 19.0 L 5.0 11.0 L 5.0 11.0 L 5.0 8.0 L 5.0 8.0 L 5.0 10.9999999999999 L 5.0 10.999999999999897 L 5.0 19.000000000000107 L 5.0 19.000000000000107 L 5.0 43.99999999999987 L 5.0 43.99999999999987 L 5.0 52.00000000000005 L 5.0 52.00000000000005 L 5.0 58.0 L 5.0 58.0 L 5.0 52.0 L 5.0 51.99999999999999 Z M 5.0 12.5 M 5.0 12.5 L 5.0 20.0 L 5.0 27.5 L 5.0 27.5 M 5.0 27.5 L 5.0 20.0 L 5.0 12.5 L 5.0 12.5 Z " stroke="#191919" stroke-width="0.35 px" style="stroke-width:0.35;stroke-miterlimit:4;stroke-dasharray:none;stroke-linecap:square;fill:#cccccc;fill-opacity:1.0;fill-rule: evenodd"/>
<path id="Body_f0041"  d="M 5.0 8.0 A 3 3 0 0 1 8 5L 8.0 5.0 A 3 3 0 0 0 5 8L 5.0 8.0 Z " stroke="#191919" stroke-width="0.35 px" style="stroke-width:0.35;stroke-miterlimit:4;stroke-dasharray:none;stroke-linecap:square;fill:#cccccc;fill-opacity:1.0;fill-rule: evenodd"/>
<path id="Body_f0042"  d="M 138.0 5.0 L 8.0 5.0 L 8.0 5.0 L 138.0 5.0 L 138.0 5.0 Z M 103.450974 5.000000000000007 M 103.450974 5.000000000000007 L 100.450974 5.000000000000007 L 100.450974 5.000000000000012 M 100.450974 5.000000000000012 L 103.450974 5.000000000000012 L 103.450974 5.000000000000007 Z M 108.450974 5.000000000000007 M 108.450974 5.000000000000007 L 105.450974 5.000000000000007 L 105.450974 5.000000000000012 M 105.450974 5.000000000000012 L 108.450974 5.000000000000012 L 108.450974 5.000000000000007 Z M 113.450974 5.000000000000007 M 113.450974 5.000000000000007 L 110.450974 5.000000000000007 L 110.450974 5.000000000000012 M 110.450974 5.000000000000012 L 113.450974 5.000000000000012 L 113.450974 5.000000000000007 Z M 118.450974 5.000000000000007 M 118.450974 5.000000000000007 L 115.450974 5.000000000000007 L 115.450974 5.000000000000012 M 115.450974 5.000000000000012 L 118.450974 5.000000000000012 L 118.450974 5.000000000000007 Z M 123.450974 5.000000000000007 M 123.450974 5.000000000000007 L 120.450974 5.000000000000007 L 120.450974 5.000000000000012 M 120.450974 5.000000000000012 L 123.450974 5.000000000000012 L 123.450974 5.000000000000007 Z " stroke="#191919" stroke-width="0.35 px" style="stroke-width:0.35;stroke-miterlimit:4;stroke-dasharray:none;stroke-linecap:square;fill:#cccccc;fill-opacity:1.0;fill-rule: evenodd"/>
<path id="Body_f0043"  d="M 0.0 10.999999999999897 L 0.0 10.999999999999897 L 5.0 10.999999999999897 L 5.0 10.999999999999897 L 0.0 10.999999999999897 Z " stroke="#191919" stroke-width="0.35 px" style="stroke-width:0.35;stroke-miterlimit:4;stroke-dasharray:none;stroke-linecap:square;fill:#cccccc;fill-opacity:1.0;fill-rule: evenodd"/>
<path id="Body_f0044"  d="M 120.450974 0.0 M 120.450974 0.0 L 123.450974 0.0 L 123.450974 5.000000000000012 M 123.450974 5.0 L 120.450974 5.0 L 120.450974 1.206e-14 Z " stroke="#191919" stroke-width="0.35 px" style="stroke-width:0.35;stroke-miterlimit:4;stroke-dasharray:none;stroke-linecap:square;fill:#cccccc;fill-opacity:1.0;fill-rule: evenodd"/>
<path id="Body_f0045"  d="M 120.450974 0.0 L 120.450974 0.0 L 120.450974 5.000000000000012 L 120.450974 5.000000000000006 L 120.450974 6.5e-15 Z " stroke="#191919" stroke-width="0.35 px" style="stroke-width:0.35;stroke-miterlimit:4;stroke-dasharray:none;stroke-linecap:square;fill:#cccccc;fill-opacity:1.0;fill-rule: evenodd"/>
<path id="Body_f0046"  d="M 123.450974 0.0 M 123.450974 0.0 L 120.450974 0.0 L 120.450974 5.000000000000006 M 120.450974 5.0 L 123.450974 5.0 L 123.450974 6.5e-15 Z " stroke="#191919" stroke-width="0.35 px" style="stroke-width:0.35;stroke-miterlimit:4;stroke-dasharray:none;stroke-linecap:square;fill:#cccccc;fill-opacity:1.0;fill-rule: evenodd"/>
<path id="Body_f0047"  d="M 123.450974 0.0 L 123.450974 0.0 L 123.450974 5.000000000000006 L 123.450974 5.000000000000012 L 123.450974 1.206e-14 Z " stroke="#191919" stroke-width="0.35 px" style="stroke-width:0.35;stroke-miterlimit:4;stroke-dasharray:none;stroke-linecap:square;fill:#cccccc;fill-opacity:1.0;fill-rule: evenodd"/>
<path id="Body_f0048"  d="M 115.450974 0.0 M 115.450974 0.0 L 118.450974 0.0 L 118.450974 5.000000000000012 M 118.450974 5.0 L 115.450974 5.0 L 115.450974 1.206e-14 Z " stroke="#191919" stroke-width="0.35 px" style="stroke-width:0.35;stroke-miterlimit:4;stroke-dasharray:none;stroke-linecap:square;fill:#cccccc;fill-opacity:1.0;fill-rule: evenodd"/>
<path id="Body_f0049"  d="M 115.450974 0.0 L 115.450974 0.0 L 115.450974 5.000000000000012 L 115.450974 5.000000000000006 L 115.450974 6.5e-15 Z " stroke="#191919" stroke-width="0.35 px" style="stroke-width:0.35;stroke-miterlimit:4;stroke-dasharray:none;stroke-linecap:square;fill:#cccccc;fill-opacity:1.0;fill-rule: evenodd"/>
<path id="Body_f0050"  d="M 118.450974 0.0 M 118.450974 0.0 L 115.450974 0.0 L 115.450974 5.000000000000006 M 115.450974 5.0 L 118.450974 5.0 L 118.450974 6.5e-15 Z " stroke="#191919" stroke-width="0.35 px" style="stroke-width:0.35;stroke-miterlimit:4;stroke-dasharray:none;stroke-linecap:square;fill:#cccccc;fill-opacity:1.0;fill-rule: evenodd"/>
<path id="Body_f0051"  d="M 118.450974 0.0 L 118.450974 0.0 L 118.450974 5.000000000000006 L 118.450974 5.000000000000012 L 118.450974 1.206e-14 Z " stroke="#191919" stroke-width="0.35 px" style="stroke-width:0.35;stroke-miterlimit:4;stroke-dasharray:none;stroke-linecap:square;fill:#cccccc;fill-opacity:1.0;fill-rule: evenodd"/>
<path id="Body_f0052"  d="M 110.450974 0.0 M 110.450974 0.0 L 113.450974 0.0 L 113.450974 5.000000000000012 M 113.450974 5.0 L 110.450974 5.0 L 110.450974 1.206e-14 Z " stroke="#191919" stroke-width="0.35 px" style="stroke-width:0.35;stroke-miterlimit:4;stroke-dasharray:none;stroke-linecap:square;fill:#cccccc;fill-opacity:1.0;fill-rule: evenodd"/>
<path id="Body_f0053"  d="M 110.450974 0.0 L 110.450974 0.0 L 110.450974 5.000000000000012 L 110.450974 5.000000000000006 L 110.450974 6.5e-15 Z " stroke="#191919" stroke-width="0.35 px" style="stroke-width:0.35;stroke-miterlimit:4;stroke-dasharray:none;stroke-linecap:square;fill:#cccccc;fill-opacity:1.0;fill-rule: evenodd"/>
<path id="Body_f0054"  d="M 113.450974 0.0 M 113.450974 0.0 L 110.450974 0.0 L 110.450974 5.000000000000006 M 110.450974 5.0 L 113.450974 5.0 L 113.450974 6.5e-15 Z " stroke="#191919" stroke-width="0.35 px" style="stroke-width:0.35;stroke-miterlimit:4;stroke-dasharray:none;stroke-linecap:square;fill:#cccccc;fill-opacity:1.0;fill-rule: evenodd"/>
<path id="Body_f0055"  d="M 113.450974 0.0 L 113.450974 0.0 L 113.450974 5.000000000000006 L 113.450974 5.000000000000012 L 113.450974 1.206e-14 Z " stroke="#191919" stroke-width="0.35 px" style="stroke-width:0.35;stroke-miterlimit:4;stroke-dasharray:none;stroke-linecap:square;fill:#cccccc;fill-opacity:1.0;fill-rule: evenodd"/>
<path id="Body_f0056"  d="M 105.450974 0.0 M 105.450974 0.0 L 108.450974 0.0 L 108.450974 5.000000000000012 M 108.450974 5.0 L 105.450974 5.0 L 105.450974 1.206e-14 Z " stroke="#191919" stroke-width="0.35 px" style="stroke-width:0.35;stroke-miterlimit:4;stroke-dasharray:none;stroke-linecap:square;fill:#cccccc;fill-opacity:1.0;fill-rule: evenodd"/>
<path id="Body_f0057"  d="M 105.450974 0.0 L 105.450974 0.0 L 105.450974 5.000000000000012 L 105.450974 5.000000000000006 L 105.450974 6.5e-15 Z " stroke="#191919" stroke-width="0.35 px" style="stroke-width:0.35;stroke-miterlimit:4;stroke-dasharray:none;stroke-linecap:square;fill:#cccccc;fill-opacity:1.0;fill-rule: evenodd"/>
<path id="Body_f0058"  d="M 108.450974 0.0 M 108.450974 0.0 L 105.450974 0.0 L 105.450974 5.000000000000006 M 105.450974 5.0 L 108.450974 5.0 L 108.450974 6.5e-15 Z " stroke="#191919" stroke-width="0.35 px" style="stroke-width:0.35;stroke-miterlimit:4;stroke-dasharray:none;stroke-linecap:square;fill:#cccccc;fill-opacity:1.0;fill-rule: evenodd"/>
<path id="Body_f0059"  d="M 108.450974 0.0 L 108.450974 0.0 L 108.450974 5.000000000000006 L 108.450974 5.000000000000012 L 108.450974 1.206e-14 Z " stroke="#191919" stroke-width="0.35 px" style="stroke-width:0.35;stroke-miterlimit:4;stroke-dasharray:none;stroke-linecap:square;fill:#cccccc;fill-opacity:1.0;fill-rule: evenodd"/>
<path id="Body_f0060"  d="M 100.450974 0.0 M 100.450974 0.0 L 103.450974 0.0 L 103.450974 5.000000000000012 M 103.450974 5.0 L 100.450974 5.0 L 100.450974 1.206e-14 Z " stroke="#191919" stroke-width="0.35 px" style="stroke-width:0.35;stroke-miterlimit:4;stroke-dasharray:none;stroke-linecap:square;fill:#cccccc;fill-opacity:1.0;fill-rule: evenodd"/>
<path id="Body_f0061"  d="M 100.450974 0.0 L 100.450974 0.0 L 100.450974 5.000000000000012 L 100.450974 5.000000000000006 L 100.450974 6.5e-15 Z " stroke="#191919" stroke-width="0.35 px" style="stroke-width:0.35;stroke-miterlimit:4;stroke-dasharray:none;stroke-linecap:square;fill:#cccccc;fill-opacity:1.0;fill-rule: evenodd"/>
<path id="Body_f0062"  d="M 103.450974 0.0 M 103.450974 0.0 L 100.450974 0.0 L 100.450974 5.000000000000006 M 100.450974 5.0 L 103.450974 5.0 L 103.450974 6.5e-15 Z " stroke="#191919" stroke-width="0.35 px" style="stroke-width:0.35;stroke-miterlimit:4;stroke-dasharray:none;stroke-linecap:square;fill:#cccccc;fill-opacity:1.0;fill-rule: evenodd"/>
<path id="Body_f0063"  d="M 103.450974 0.0 L 103.450974 0.0 L 103.450974 5.000000000000006 L 103.450974 5.000000000000012 L 103.450974 1.206e-14 Z " stroke="#191919" stroke-width="0.35 px" style="stroke-width:0.35;stroke-miterlimit:4;stroke-dasharray:none;stroke-linecap:square;fill:#cccccc;fill-opacity:1.0;fill-rule: evenodd"/>
<path id="Body_f0064"  d="M 0.0 19.0 L 0.0 11.0 L 5.0 11.0 L 5.0 19.0 L 0.0 19.0 Z " stroke="#191919" stroke-width="0.35 px" style="stroke-width:0.35;stroke-miterlimit:4;stroke-dasharray:none;stroke-linecap:square;fill:#cccccc;fill-opacity:1.0;fill-rule: evenodd"/>
<path id="Body_f0065"  d="M 0.0 19.0 L 0.0 19.0 L 5.0 19.0 L 5.0 19.0 L 0.0 19.0 Z " stroke="#191919" stroke-width="0.35 px" style="stroke-width:0.35;stroke-miterlimit:4;stroke-dasharray:none;stroke-linecap:square;fill:#cccccc;fill-opacity:1.0;fill-rule: evenodd"/>
<path id="Body_f0066"  d="M 5.0 43.999999999999964 L 5.0 19.0 L 0.0 19.0 L 0.0 43.999999999999964 L 5.0 43.999999999999964 Z " stroke="#191919" stroke-width="0.35 px" style="stroke-width:0.35;stroke-miterlimit:4;stroke-dasharray:none;stroke-linecap:square;fill:#cccccc;fill-opacity:1.0;fill-rule: evenodd"/>
<path id="Body_f0067"  d="M 0.0 43.999999999999964 L 0.0 43.999999999999964 L 5.0 43.999999999999964 L 5.0 43.999999999999964 L 0.0 43.999999999999964 Z " stroke="#191919" stroke-width="0.35 px" style="stroke-width:0.35;stroke-miterlimit:4;stroke-dasharray:none;stroke-linecap:square;fill:#cccccc;fill-opacity:1.0;fill-rule: evenodd"/>
<path id="Body_f0068"  d="M 0.0 51.99999999999999 L 0.0 43.999999999999964 L 5.0 43.999999999999964 L 5.0 51.99999999999999 L 0.0 51.99999999999999 Z " stroke="#191919" stroke-width="0.35 px" style="stroke-width:0.35;stroke-miterlimit:4;stroke-dasharray:none;stroke-linecap:square;fill:#cccccc;fill-opacity:1.0;fill-rule: evenodd"/>
<path id="Body_f0069"  d="M 0.0 51.99999999999999 L 0.0 51.99999999999999 L 5.0 51.99999999999999 L 5.0 52.0 L 0.0 52.0 Z " stroke="#191919" stroke-width="0.35 px" style="stroke-width:0.35;stroke-miterlimit:4;stroke-dasharray:none;stroke-linecap:square;fill:#cccccc;fill-opacity:1.0;fill-rule: evenodd"/>
<path id="Body_f0070"  d="M 5.0 58.0 L 5.0 52.0 L 0.0 52.0 L 0.0 63.0 A 3 3 0 0 0 3 66L 20.0 66.0 L 20.0 61.0 L 8.0 61.0 A 3 3 0 0 1 5 58Z " stroke="#191919" stroke-width="0.35 px" style="stroke-width:0.35;stroke-miterlimit:4;stroke-dasharray:none;stroke-linecap:square;fill:#cccccc;fill-opacity:1.0;fill-rule: evenodd"/>
<path id="Body_f0071"  d="M 0.0 63.0 A 3 3 0 0 0 3 66L 2.9999999999999996 66.0 A 3 3 0 0 1 -4.44089e-16 63L 0.0 63.0 Z " stroke="#191919" stroke-width="0.35 px" style="stroke-width:0.35;stroke-miterlimit:4;stroke-dasharray:none;stroke-linecap:square;fill:#cccccc;fill-opacity:1.0;fill-rule: evenodd"/>
<path id="Body_f0072"  d="M 0.0 52.00000000000005 L 5.0 52.00000000000005 L 5.0 58.0 A 3 3 0 0 0 8 61L 20.0 61.0 L 20.0 66.0 L 3.0 66.0 A 3 3 0 0 1 -4.44089e-16 63L 0.0 52.00000000000005 Z " stroke="#191919" stroke-width="0.35 px" style="stroke-width:0.35;stroke-miterlimit:4;stroke-dasharray:none;stroke-linecap:square;fill:#cccccc;fill-opacity:1.0;fill-rule: evenodd"/>
<path id="Body_f0073"  d="M 0.0 52.00000000000005 L 0.0 52.00000000000005 L 5.0 52.00000000000005 L 5.0 52.00000000000005 L 0.0 52.00000000000005 Z " stroke="#191919" stroke-width="0.35 px" style="stroke-width:0.35;stroke-miterlimit:4;stroke-dasharray:none;stroke-linecap:square;fill:#cccccc;fill-opacity:1.0;fill-rule: evenodd"/>
<path id="Body_f0074"  d="M 0.0 43.99999999999987 L 0.0 52.00000000000005 L 5.0 52.00000000000005 L 5.0 43.99999999999987 L 0.0 43.99999999999987 Z " stroke="#191919" stroke-width="0.35 px" style="stroke-width:0.35;stroke-miterlimit:4;stroke-dasharray:none;stroke-linecap:square;fill:#cccccc;fill-opacity:1.0;fill-rule: evenodd"/>
<path id="Body_f0075"  d="M 0.0 43.99999999999987 L 0.0 43.99999999999987 L 5.0 43.99999999999987 L 5.0 43.99999999999987 L 0.0 43.99999999999987 Z " stroke="#191919" stroke-width="0.35 px" style="stroke-width:0.35;stroke-miterlimit:4;stroke-dasharray:none;stroke-linecap:square;fill:#cccccc;fill-opacity:1.0;fill-rule: evenodd"/>
<path id="Body_f0076"  d="M 0.0 19.000000000000107 L 5.0 19.000000000000107 L 5.0 43.99999999999987 L 0.0 43.99999999999987 L 0.0 19.000000000000107 Z " stroke="#191919" stroke-width="0.35 px" style="stroke-width:0.35;stroke-miterlimit:4;stroke-dasharray:none;stroke-linecap:square;fill:#cccccc;fill-opacity:1.0;fill-rule: evenodd"/>
<path id="Body_f0077"  d="M 0.0 19.000000000000107 L 0.0 19.000000000000107 L 5.0 19.000000000000107 L 5.0 19.000000000000107 L 0.0 19.000000000000107 Z " stroke="#191919" stroke-width="0.35 px" style="stroke-width:0.35;stroke-miterlimit:4;stroke-dasharray:none;stroke-linecap:square;fill:#cccccc;fill-opacity:1.0;fill-rule: evenodd"/>
<path id="Body_f0078"  d="M 0.0 10.999999999999897 L 0.0 19.000000000000107 L 5.0 19.000000000000107 L 5.0 10.999999999999897 L 0.0 10.999999999999897 Z " stroke="#191919" stroke-width="0.35 px" style="stroke-width:0.35;stroke-miterlimit:4;stroke-dasharray:none;stroke-linecap:square;fill:#cccccc;fill-opacity:1.0;fill-rule: evenodd"/>
<path id="Body_f0079"  d="M 0.0 27.5 M 0.0 27.5 L 0.0 20.0 L 0.0 12.5 L 5.0 12.5 M 5.0 12.5 L 5.0 20.000000000000004 L 5.0 27.5 L 0.0 27.5 Z " stroke="#191919" stroke-width="0.35 px" style="stroke-width:0.35;stroke-miterlimit:4;stroke-dasharray:none;stroke-linecap:square;fill:#cccccc;fill-opacity:1.0;fill-rule: evenodd"/>
<path id="Body_f0080"  d="M 0.0 27.5 L 0.0 27.5 L 5.0 27.5 L 5.0 27.5 L 0.0 27.5 Z " stroke="#191919" stroke-width="0.35 px" style="stroke-width:0.35;stroke-miterlimit:4;stroke-dasharray:none;stroke-linecap:square;fill:#cccccc;fill-opacity:1.0;fill-rule: evenodd"/>
<path id="Body_f0081"  d="M 0.0 12.5 M 0.0 12.5 L 0.0 19.999999999999996 L 0.0 27.5 L 5.0 27.5 M 5.0 27.5 L 5.0 20.0 L 5.0 12.5 L 0.0 12.5 Z " stroke="#191919" stroke-width="0.35 px" style="stroke-width:0.35;stroke-miterlimit:4;stroke-dasharray:none;stroke-linecap:square;fill:#cccccc;fill-opacity:1.0;fill-rule: evenodd"/>
<path id="Body_f0082"  d="M 0.0 12.5 L 0.0 12.5 L 5.0 12.5 L 5.0 12.5 L 0.0 12.5 Z " stroke="#191919" stroke-width="0.35 px" style="stroke-width:0.35;stroke-miterlimit:4;stroke-dasharray:none;stroke-linecap:square;fill:#cccccc;fill-opacity:1.0;fill-rule: evenodd"/>
<path id="Body_f0083"  d="M 5.0 58.0 A 3 3 0 0 0 8 61L 8.0 61.0 L 8.0 61.000000000000014 L 8.0 61.0 A 3 3 0 0 1 5 58L 5.0 58.0 Z " stroke="#191919" stroke-width="0.35 px" style="stroke-width:0.35;stroke-miterlimit:4;stroke-dasharray:none;stroke-linecap:square;fill:#cccccc;fill-opacity:1.0;fill-rule: evenodd"/>
<path id="Body_f0084"  d="M 20.0 66.0 L 3.0 66.0 L 2.9999999999999996 66.0 L 20.0 66.0 L 20.0 66.0 Z M 8.0 66.00000000000001 M 8.0 66.0 L 8.0 66.0 Z M 8.0 66.0 M 8.0 66.0 L 8.0 66.0 Z M 10.5 66.00000000000001 M 10.5 66.0 L 10.5 66.0 Z " stroke="#191919" stroke-width="0.35 px" style="stroke-width:0.35;stroke-miterlimit:4;stroke-dasharray:none;stroke-linecap:square;fill:#cccccc;fill-opacity:1.0;fill-rule: evenodd"/>
<path id="Body_f0085"  d="M 20.0 66.0 L 20.0 66.0 L 20.0 61.0 L 20.0 61.0 L 20.0 66.0 Z " stroke="#191919" stroke-width="0.35 px" style="stroke-width:0.35;stroke-miterlimit:4;stroke-dasharray:none;stroke-linecap:square;fill:#cccccc;fill-opacity:1.0;fill-rule: evenodd"/>
<path id="Body_f0086"  d="M 8.0 61.000000000000014 L 8.0 61.0 L 20.0 61.0 L 20.0 61.0 L 8.0 61.0 L 8.0 61.0 L 8.0 61.000000000000014 Z M 8.0 61.000000000000014 M 8.0 61.0 L 8.0 61.0 Z M 10.5 61.00000000000001 M 10.5 61.0 L 10.5 61.0 Z M 8.0 61.0 M 8.0 61.0 L 8.0 61.0 Z " stroke="#191919" stroke-width="0.35 px" style="stroke-width:0.35;stroke-miterlimit:4;stroke-dasharray:none;stroke-linecap:square;fill:#cccccc;fill-opacity:1.0;fill-rule: evenodd"/>
<path id="Body_f0087"  d="M 8.0 66.00000000000001 M 8.0 66.0 L 8.0 66.0 L 8.0 61.000000000000014 M 8.0 61.0 L 8.0 61.0 Z " stroke="#191919" stroke-width="0.35 px" style="stroke-width:0.35;stroke-miterlimit:4;stroke-dasharray:none;stroke-linecap:square;fill:#cccccc;fill-opacity:1.0;fill-rule: evenodd"/>
<path id="Body_f0088"  d="M 8.0 66.0 M 8.0 66.0 L 8.0 66.0 L 8.0 61.0 M 8.0 61.0 L 8.0 61.0 Z " stroke="#191919" stroke-width="0.35 px" style="stroke-width:0.35;stroke-miterlimit:4;stroke-dasharray:none;stroke-linecap:square;fill:#cccccc;fill-opacity:1.0;fill-rule: evenodd"/>
<path id="Body_f0089"  d="M 10.5 66.00000000000001 M 10.5 66.0 L 10.5 66.0 L 10.5 61.00000000000001 M 10.5 61.0 L 10.5 61.0 Z " stroke="#191919" stroke-width="0.35 px" style="stroke-width:0.35;stroke-miterlimit:4;stroke-dasharray:none;stroke-linecap:square;fill:#cccccc;fill-opacity:1.0;fill-rule: evenodd"/>
<title>b'Prim Shell'</title>
</g>
</svg>